# xmcd
#
# Track frame offsets:
#	150
#	15052
#	28377
#	42205
#	59075
#	76772
#	88217
#	103555
#	116532
#	131387
#
# Disc length: 2015 seconds
# Revision: 3
# Processed by: cddbd v1.5.2PL0 Copyright (c) Steve Scherf et al.
# Submitted via: dBpowerAMP V12.0
#
DISCID=7607dd0a
DTITLE=Dean Dillon - Slick Nickel
DYEAR=1974
DGENRE=Country
TTITLE0=Hey Heart
TTITLE1=The New Never Wore off My Sweet Baby
TTITLE2=When the Feelin's Right
TTITLE3=I Go to Pieces
TTITLE4=Hard Time for Lovers
TTITLE5=Appalachia Got to Have You Feelin' in My Bones
TTITLE6=You Sure Got This Ol' Redneck Feelin' Blue
TTITLE7=Still Got a Crush on You
TTITLE8=Station to Station
TTITLE9=Father, Son and Holy Ghost
EXTD=
EXTT0=
EXTT1=
EXTT2=
EXTT3=
EXTT4=
EXTT5=
EXTT6=
EXTT7=
EXTT8=
EXTT9=
PLAYORDER=
